<svg aria-hidden="true" style="position:absolute;width:0;height:0;overflow:hidden" xmlns="http://www.w3.org/2000/svg">
  <defs>
    <symbol id="icon-vector" viewBox="0 0 21 32">
      <path fill="#fbfbfb" style="fill:var(--color1, #fbfbfb)" d="M5.333 9.2c0-2.5 1.913-4.533 4.267-4.533h2.133C14.086 4.667 16 6.7 16 9.2v.255c0 1.544-.74 2.982-1.96 3.811l-2.813 1.92c-.826.564-1.505 1.34-1.976 2.256s-.717 1.943-.717 2.986v.106c0 1.254.953 2.267 2.133 2.267s2.133-1.013 2.133-2.267v-.099c0-.581.28-1.119.733-1.431l2.813-1.92c2.44-1.672 3.92-4.54 3.92-7.629V9.2c0-5.008-3.82-9.067-8.533-9.067H9.6C4.887.133 1.067 4.192 1.067 9.2c0 1.254.953 2.267 2.133 2.267S5.333 10.454 5.333 9.2zm5.334 22.667c.707 0 1.386-.298 1.886-.83s.781-1.252.781-2.003c0-.752-.281-1.472-.781-2.003s-1.178-.83-1.886-.83-1.386.298-1.886.83c-.5.531-.781 1.252-.781 2.003s.281 1.472.781 2.003 1.178.83 1.886.83z"/>
    </symbol>
    <symbol id="icon-users" viewBox="0 0 32 32">
      <path fill="#fbfbfb" style="fill:var(--color1, #fbfbfb)" d="m19.041 22.529-.548 2.044L4.187 20.74l.548-2.044s1.095-4.087 8.248-2.171 6.058 6.004 6.058 6.004zm-.975-10.666c.189-.707.165-1.455-.07-2.149s-.671-1.302-1.252-1.747a3.701 3.701 0 1 0 1.323 3.896zm2.009 6.562a5.63 5.63 0 0 1 1.01 4.652l-.548 2.044 4.087 1.095.548-2.044s.994-3.709-5.097-5.747zm1.504-9.454a3.597 3.597 0 0 0-2.134.074 5.288 5.288 0 0 1-1.593 5.947 3.583 3.583 0 0 0 1.811 1.131 3.705 3.705 0 0 0 4.535-2.618A3.704 3.704 0 0 0 21.58 8.97z"/>
    </symbol>
    <symbol id="icon-check" viewBox="0 0 32 32">
      <path fill="#fc832c" style="fill:var(--color2, #fc832c)" d="M8 13.333 5.333 16l8 8 13.333-13.333L23.999 8 13.332 18.667l-5.333-5.333z"/>
    </symbol>
    <symbol id="icon-arrow" viewBox="0 0 28 32">
      <path fill="#fbfbfb" style="fill:var(--color1, #fbfbfb)" d="M24.137 3.149a1.882 1.882 0 0 0-2.126-1.602L5.235 3.905a1.883 1.883 0 0 0 .524 3.728l14.912-2.096 2.096 14.912a1.882 1.882 0 1 0 3.728-.524L24.137 3.149zM3.386 31.604l20.391-27.06-3.007-2.266L.379 29.338l3.007 2.266z"/>
    </symbol>
  </defs>
</svg>
